<svg width="56" height="51" fill="none" xmlns="http://www.w3.org/2000/svg"><path d="M40.788 39.035h6.343c2.372 0 4.022-1.083 4.022-3.3 0-2.218-1.65-3.3-4.022-3.3h-6.343v6.6zm0 11.5h8.457c4.486 0 6.807-2.321 6.807-6.808v-4.692h-.155c-1.29 3.919-4.641 5.105-8.612 5.105h-6.29c-.155 0-.207.051-.207.206v6.188zm-11.911-14.8l6.497 6.29v-12.58l-6.497 6.29zm-22.07 14.8h28.567V49.09c0-2.527.877-3.97 2.887-4.744v-.154H30.27c-.413 0-.567-.052-.877-.361l-4.177-4.332-4.331 4.383c-.206.206-.361.31-.774.31h-6.445c-.361 0-.361-.207-.155-.413l8.25-7.993-8.405-8.147c-.206-.206-.154-.412.207-.412h6.497c.36 0 .516.051.722.309l4.538 4.538 4.28-4.538c.206-.206.36-.31.67-.31h16.965c3.919 0 7.374 1.29 8.663 5.209h.155V6.807C56.052 2.32 53.732 0 49.245 0H6.807C2.32 0 0 2.32 0 6.807v36.972c0 4.435 2.32 6.755 6.807 6.755z" fill="#fff"/></svg>