<?xml version="1.0" encoding="UTF-8" standalone="no"?> <svg id="Layer_1" data-name="Layer 1" xmlns="http://www.w3.org/2000/svg" viewBox="0 0 512 512"><title>Lock</title><path d="M405.333,170.667c0-82.343-66.991-149.333-149.333-149.333S106.667,88.324,106.667,170.667A42.716,42.716,0,0,0,64,213.333V384a85.43,85.43,0,0,0,85.333,85.333H362.667A85.43,85.43,0,0,0,448,384V213.333A42.716,42.716,0,0,0,405.333,170.667ZM256,64A106.787,106.787,0,0,1,362.667,170.667H149.333A106.787,106.787,0,0,1,256,64ZM405.333,384a42.716,42.716,0,0,1-42.667,42.667H149.333A42.716,42.716,0,0,1,106.667,384V213.333H405.333Z"/><path d="M234.667,335.619v27.048a21.333,21.333,0,0,0,42.667,0V335.619a42.9,42.9,0,1,0-42.667,0Z"/></svg>